<?xml version="1.0" encoding="UTF-8"?><!DOCTYPE svg PUBLIC "-//W3C//DTD SVG 1.1//EN" "http://www.w3.org/Graphics/SVG/1.1/DTD/svg11.dtd"><svg xmlns="http://www.w3.org/2000/svg" xmlns:xlink="http://www.w3.org/1999/xlink"><defs/><symbol id="nq-arrow-left-small" viewBox="0 0 15 12"><path d="M6 10L2.00056 5.99944L6 2" stroke-width="1.5" stroke-linecap="round" stroke-linejoin="round" stroke="currentColor" fill="none"/><line x1="3.55078" y1="6.05078" x2="13.4786" y2="6.05078" stroke-width="1.5" stroke-linecap="round" stroke-linejoin="round" stroke="currentColor" fill="none"/></symbol><symbol id="nq-arrow-left" viewBox="0 0 23 18"><path d="M22 9.04854L2.99789 9.04826" stroke="currentColor" fill="none" stroke-width="2" stroke-linecap="round" stroke-linejoin="round"/><path d="M8.99902 16.001L1.99951 8.99951L8.99902 2" stroke="currentColor" fill="none" stroke-width="2" stroke-linecap="round" stroke-linejoin="round"/></symbol><symbol id="nq-arrow-right-small" viewBox="0 0 18 14"><path d="M11.001 2.00098L16.0003 7.00168L11.001 12.001" stroke="currentColor" fill="none" stroke-width="2" stroke-linecap="round" stroke-linejoin="round"/><line x1="14" y1="7" x2="1.71529" y2="7" stroke="currentColor" fill="none" stroke-width="2" stroke-linecap="round" stroke-linejoin="round"/></symbol><symbol id="nq-arrow-right" viewBox="0 0 23 18"><path d="M13.9995 1.99902L20.999 9.00049L13.9995 16" stroke="currentColor" fill="none" stroke-width="2" stroke-linecap="round" stroke-linejoin="round"/><line x1="18.999" y1="9" x2="0.999023" y2="9" stroke="currentColor" fill="none" stroke-width="2" stroke-linecap="round" stroke-linejoin="round"/></symbol><symbol id="nq-browser-login" viewBox="0 0 33 33"><g fill-rule="evenodd" clip-rule="evenodd" fill="currentColor"><path d="M30.25 1.38H2.75A2.75 2.75 0 0 0 0 4.13v24.75a2.75 2.75 0 0 0 2.75 2.75h27.5A2.75 2.75 0 0 0 33 28.88V4.13a2.75 2.75 0 0 0-2.75-2.75zM7.56 4.92a1.37 1.37 0 1 1 2.75 0 1.37 1.37 0 0 1-2.75 0zm6.19-1.38a1.37 1.37 0 1 0 0 2.75 1.37 1.37 0 0 0 0-2.75zm-9.63 0a1.37 1.37 0 1 1 0 2.75 1.37 1.37 0 0 1 0-2.75zm-.68 25.33h26.12c.38 0 .69-.31.69-.7V9.64c0-.38-.3-.7-.69-.7H3.44c-.38 0-.69.32-.69.7v18.56c0 .38.3.68.69.68z"/><path d="M22.34 11h2.07c.19 0 .34.15.34.34v2.07c0 .09-.04.18-.1.24l-.89.89.35 1.24a.69.69 0 0 1-.95.81l-1-.45-.5.5.25 1.66a.69.69 0 0 1-.9.75l-1.32-.44-1.6 1.6a5.16 5.16 0 1 1-2.54-2.56l6.55-6.55c.06-.06.15-.1.24-.1zm-10.3 13.75a1.03 1.03 0 1 0 0-2.06 1.03 1.03 0 0 0 0 2.06z"/></g></symbol><symbol id="nq-caret-right-small" viewBox="0 0 10 11"><path d="M5.00098 2L8.53602 5.53603L5.00098 9.07107" stroke="currentColor" fill="none" stroke-width="1.5" stroke-linecap="round" stroke-linejoin="round"/></symbol><symbol id="nq-checkmark" viewBox="0 0 74 74"><path d="M71.12 1.84a4.5 4.5 0 0 0-6.28 1.04l-42.1 58.74L8.68 47.54a4.5 4.5 0 1 0-6.36 6.37l17.8 17.81a4.57 4.57 0 0 0 6.84-.56l45.2-63.03a4.5 4.5 0 0 0-1.04-6.29z" fill="currentColor" stroke="currentColor" stroke-width=".8"/></symbol><symbol id="nq-close" viewBox="0 0 24 24"><path fill-rule="evenodd" clip-rule="evenodd" d="M3.528 3.52c4.683-4.684 12.275-4.686 16.96-.005 4.678 4.69 4.678 12.28 0 16.97-4.685 4.68-12.277 4.678-16.96-.005-4.682-4.684-4.682-12.276 0-16.96zm13.145 13.133a1 1 0 0 0 .036-1.374l-3.11-3.11a.25.25 0 0 1 0-.352l3.11-3.11a1 1 0 1 0-1.414-1.415l-3.11 3.11a.25.25 0 0 1-.354 0l-3.11-3.11a1 1 0 0 0-1.41 1.415l3.11 3.11a.249.249 0 0 1 0 .353l-3.11 3.109a1 1 0 0 0 0 1.415c.396.38 1.021.38 1.416 0l3.109-3.11a.252.252 0 0 1 .354 0l3.11 3.11a1 1 0 0 0 1.373-.041z" fill="currentColor"/></symbol><symbol id="nq-contacts" viewBox="0 0 40 49"><path fill-rule="evenodd" clip-rule="evenodd" d="M35.73 7.25c0 .48.34.9.82 1a4.08 4.08 0 0 1 3.26 4v32.67A4.08 4.08 0 0 1 35.73 49H6.13A6.13 6.13 0 0 1 0 42.87V6.13A6.13 6.13 0 0 1 6.13 0h25.52a4.08 4.08 0 0 1 4.08 4.08v3.17zm-5.1 31.88A10.23 10.23 0 0 0 20.4 29.6c-5.21 0-9.6 3.9-10.19 9.08a1.02 1.02 0 0 0 1.02 1.13h18.75a.64.64 0 0 0 .64-.68zm-16.38-17.7a6.15 6.15 0 1 1 12.3-.04 6.15 6.15 0 0 1-12.3.05zM6.12 4.09a2.04 2.04 0 0 0 0 4.09h25.01c.29 0 .51-.23.51-.51V4.59a.51.51 0 0 0-.5-.5H6.11z" fill="currentColor"/></symbol><symbol id="nq-copy" viewBox="0 0 35 40"><path fill-rule="evenodd" clip-rule="evenodd" d="M34.07 6.01L28.95.92c-.6-.59-1.4-.92-2.24-.92H12.33a3.17 3.17 0 0 0-3.16 3.17v5.16h-6A3.17 3.17 0 0 0 0 11.5v25.35A3.17 3.17 0 0 0 3.17 40h19.5a3.17 3.17 0 0 0 3.16-3.16v-5.17h6A3.17 3.17 0 0 0 35 28.5V8.25c0-.84-.33-1.65-.93-2.24zM22.5 35.83c0 .46-.37.84-.83.84H4.17a.83.83 0 0 1-.84-.84V12.5c0-.46.38-.83.84-.83h12.97c.22 0 .43.08.58.23l4.53 4.43c.16.16.25.37.25.6v18.9zm3.75-7.5h4.58c.46 0 .84-.37.84-.83V8.6a.83.83 0 0 0-.25-.6l-4.58-4.47a.83.83 0 0 0-.58-.24l-12.93.04a.83.83 0 0 0-.83.84v3.75c0 .23.19.41.42.41h4.63c.84 0 1.64.33 2.23.93l5.12 5.09c.6.59.93 1.4.93 2.23v11.34c0 .23.19.41.42.41z" fill="currentColor"/></symbol><symbol id="nq-download" viewBox="0 0 20 20"><path d="M15.36 11.38a.83.83 0 0 0-.59-1.42h-3.31a.2.2 0 0 1-.2-.2V1.24a1.25 1.25 0 1 0-2.5 0v8.5c0 .12-.1.2-.22.2H5.23a.83.83 0 0 0-.59 1.43l4.77 4.77c.33.33.86.33 1.18 0l4.77-4.77zM16.02 18.75c0-.69-.55-1.25-1.25-1.25H5.23a1.25 1.25 0 1 0 0 2.5h9.54c.7 0 1.25-.56 1.25-1.25z" fill="currentColor"/></symbol><symbol id="nq-face-neutral" viewBox="0 0 102 102"><circle cx="51" cy="51" r="48" stroke="currentColor" fill="none" stroke-width="6"/><circle cx="35.1485" cy="40.6627" r="4.82432" fill="currentColor"/><circle cx="66.8514" cy="40.6622" r="4.82432" fill="currentColor"/><path d="M39 68.9863C39 68.9863 44.8244 68.9863 51.0271 68.9863C57.2298 68.9863 63.0541 68.9863 63.0541 68.9863" stroke="currentColor" fill="none" stroke-width="6" stroke-linecap="round" stroke-linejoin="round"/></symbol><symbol id="nq-face-sad" viewBox="0 0 102 102"><circle cx="51" cy="51" r="48" stroke="currentColor" fill="none" stroke-width="6"/><circle cx="35.1485" cy="40.6627" r="4.82432" fill="currentColor"/><circle cx="66.8514" cy="40.6622" r="4.82432" fill="currentColor"/><path d="M39.9729 70.9867C39.9729 70.9867 44.7972 68.23 50.9999 68.23C57.2026 68.23 62.027 70.9867 62.027 70.9867" stroke="currentColor" fill="none" stroke-width="6" stroke-linecap="round" stroke-linejoin="round"/></symbol><symbol id="nq-fire" viewBox="0 0 42 42"><path fill-rule="evenodd" clip-rule="evenodd" d="M37.2 18.1c.3.1.5.3.6.6a17.1 17.1 0 0 1-16.3 21.8c-9.6.2-17.6-7-18-16v-1c0-5 2.3-9.7 6.3-12.9.2-.1.5-.2.8-.1.3 0 .5.3.6.6.4 1.3 1 2.6 1.8 3.8l.4.2c.2 0 .3-.1.4-.3a15.6 15.6 0 0 0-1-13.6.8.8 0 0 1 0-.8c.1-.3.4-.4.8-.4 10.2 1.8 18 10 18.7 20l.2.4h.5c1.2-.5 2.3-1.2 3.4-2 .2-.3.5-.3.8-.3zM16 33.7c1.3 1.3 3.1 2 5 2a7 7 0 0 0 5-2c1.3-1.2 2-3 2-4.7a6.2 6.2 0 0 0-3.6-6c-.1-.1-.2-.1-.4 0l-.2.2c-.2.7-.7 1.3-1.3 1.8 0 0-.2.1-.4 0a.4.4 0 0 1-.3-.1 7 7 0 0 1 .8-7c.2-.2.2-.4 0-.5a.5.5 0 0 0-.5-.2c-4.8 2-8 6.5-8.1 11.6 0 1.8.7 3.6 2 4.9z" fill="currentColor"/></symbol><symbol id="nq-hexagon" viewBox="0 0 27 24"><path d="M26.6991 10.875L21.0741 1.125C20.6691 0.4275 19.9266 0 19.1241 0H7.87414C7.07164 0 6.32914 0.4275 5.92789 1.125L0.302891 10.875C-0.0983594 11.5725 -0.0983594 12.4275 0.302891 13.125L5.92789 22.875C6.32914 23.5725 7.07164 24 7.87414 24H19.1241C19.9266 24 20.6691 23.5725 21.0704 22.875L26.6954 13.125C27.1004 12.4275 27.1004 11.5725 26.6991 10.875Z" fill="currentColor"/></symbol><symbol id="nq-info-circle" viewBox="0 0 16 16"><line x1="8" y1="7.83301" x2="8" y2="11.333" stroke="currentColor" fill="none" stroke-linecap="round"/><circle cx="8" cy="4.75" r="0.5" fill="currentColor" stroke="currentColor" stroke-width="0.5"/><circle cx="8" cy="8" r="7.5" stroke="currentColor" fill="none"/></symbol><symbol id="nq-keys" viewBox="0 0 39 39"><g fill="currentColor"><path fill-rule="evenodd" clip-rule="evenodd" d="M21.94 14.04a9.1 9.1 0 0 0-2.44-6.18V3.9c0-2.15-1.82-3.9-4.06-3.9a3.98 3.98 0 0 0-4.07 3.9v.81a9.58 9.58 0 0 0-8.83 8.13 9.34 9.34 0 0 0 6.4 10.02v1l-1.39 1.33a.76.76 0 0 0 0 1.1l1.39 1.33v.92l-1.39 1.33c-.32.3-.32.8 0 1.1l1.39 1.33v2.02c0 .2.08.4.23.55l2.44 2.34a.83.83 0 0 0 1.15 0l2.44-2.34a.76.76 0 0 0 .24-.55V22.86a9.42 9.42 0 0 0 6.5-8.82zm-9.75-4.68c.9 0 1.62.7 1.62 1.56a1.6 1.6 0 0 1-1.62 1.56c-.9 0-1.63-.7-1.63-1.56 0-.86.73-1.56 1.63-1.56zm5.69-5.46c0-1.3-1.1-2.34-2.44-2.34A2.39 2.39 0 0 0 13 3.9v3.9h1.63V4.98c1.16.29 2.27.79 3.24 1.46V3.9z"/><path d="M36.33 28.12l-8.45-8.11a9.07 9.07 0 0 0-3.45-11.85.84.84 0 0 0-.98.07.76.76 0 0 0-.2.91 11.4 11.4 0 0 1-4.52 14.75.77.77 0 0 0-.34.87c.1.33.42.56.78.56h.01c1.43-.01 2.84-.32 4.13-.92l1.06.9v2c0 .43.36.78.8.78h2.1l.35.35v1.99c0 .43.36.78.8.78h1.83l1.49 1.35c.15.13.35.21.56.21h3.45a.8.8 0 0 0 .81-.78v-3.3c0-.22-.08-.41-.23-.56z"/></g></symbol><symbol id="nq-ledger" viewBox="0 0 290 61"><path d="M145.5,46C137,46,130,39,130,30.5S137,15,145.5,15S161,22,161,30.5S154,46,145.5,46z M145.5,17 c-7.4,0-13.5,6.1-13.5,13.5S138.1,44,145.5,44S159,37.9,159,30.5S152.9,17,145.5,17z" fill="currentColor"/><path d="M285.5,3H107V2c0-1.1-0.9-2-2-2H89c-1.1,0-2,0.9-2,2v1H41V2c0-1.1-0.9-2-2-2H23c-1.1,0-2,0.9-2,2v1H4 C1.8,3,0,4.8,0,7v47c0,2.2,1.8,4,4,4h281.5c2.5,0,4.5-2,4.5-4.5v-46C290,5,288,3,285.5,3z M102,40.9c0,1.1-0.9,2.1-2,2.1H28 c-1.1,0-2-0.9-2-2.1V20.1c0-1.1,0.9-2.1,2-2.1h72c1.1,0,2,0.9,2,2.1V40.9z M288,53.5c0,1.4-1.1,2.5-2.5,2.5h-140 C131.4,56,120,44.6,120,30.5C120,16.4,131.4,5,145.5,5h140c1.4,0,2.5,1.1,2.5,2.5V53.5z" fill="currentColor"/></symbol><symbol id="nq-lock-locked" viewBox="0 0 32 47"><path fill-rule="evenodd" clip-rule="evenodd" d="M29.5 22.512V12.96C29.5 5.802 23.456 0 16 0S2.5 5.802 2.5 12.96v9.552c-4.26 6.43-2.966 14.887 3.041 19.868 6.007 4.982 14.911 4.982 20.918 0 6.008-4.981 7.302-13.438 3.041-19.868zM16 34.56c-2.209 0-4-1.72-4-3.84s1.791-3.84 4-3.84c2.21 0 4 1.72 4 3.84s-1.79 3.84-4 3.84zm8.027-17.653a.952.952 0 0 0 .473-.816V12.96c0-4.507-3.805-8.16-8.5-8.16-4.694 0-8.5 3.653-8.5 8.16v3.131c0 .332.179.641.473.816.294.175.661.192.971.045a16.437 16.437 0 0 1 14.112 0c.31.147.677.13.971-.045z" fill="currentColor"/></symbol><symbol id="nq-lock-unlocked" viewBox="0 0 33 47"><path fill-rule="evenodd" clip-rule="evenodd" d="M30.5 12.96v9.552c3.93 5.944 3.165 13.69-1.859 18.818-5.024 5.129-13.03 6.337-19.451 2.935-6.421-3.401-9.625-10.548-7.783-17.363C3.248 20.087 9.667 15.336 17 15.36c2.449 0 4.864.545 7.056 1.592.31.147.677.13.971-.045a.952.952 0 0 0 .473-.816V12.96c0-4.507-3.805-8.16-8.5-8.16-4.694 0-8.5 3.653-8.5 8.16 0 1.325-1.12 2.4-2.5 2.4s-2.5-1.074-2.5-2.4C3.5 5.802 9.544 0 17 0s13.5 5.802 13.5 12.96zM13 30.72c0 2.12 1.79 3.84 4 3.84s4-1.72 4-3.84-1.79-3.84-4-3.84-4 1.72-4 3.84z" fill="currentColor"/></symbol><symbol id="nq-login" viewBox="0 0 54 54"><path d="M26.95 0A27.05 27.05 0 0 0 .21 22.32a1.12 1.12 0 0 0 1.13 1.3h18.72c.62 0 1.12-.5 1.12-1.12v-8.1a2.25 2.25 0 0 1 3.66-1.76l15.75 12.6a2.25 2.25 0 0 1 0 3.52l-15.75 12.6a2.25 2.25 0 0 1-3.66-1.76v-8.1c0-.62-.5-1.12-1.12-1.12H1.35a1.14 1.14 0 0 0-1.13 1.3 27 27 0 0 0 53.55-5.78A27.25 27.25 0 0 0 26.95 0z" fill="currentColor"/></symbol><symbol id="nq-paper-edit" viewBox="0 0 40 40"><path d="M21.25 8.33h-10a1.25 1.25 0 1 0 0 2.5h10a1.25 1.25 0 0 0 0-2.5zM22.5 15.42c0-.7-.56-1.25-1.25-1.25H7.92a1.25 1.25 0 0 0 0 2.5h13.33c.69 0 1.25-.56 1.25-1.25zM7.92 20a1.25 1.25 0 1 0 0 2.5h9.16a1.25 1.25 0 1 0 0-2.5H7.92z" fill="currentColor"/><path d="M18.83 29.43a.42.42 0 0 0-.38-.26H4.17a.83.83 0 0 1-.84-.84V4.17c0-.46.38-.84.84-.84h21.66c.46 0 .84.38.84.84v16.78a.42.42 0 0 0 .7.3l2.14-2.14c.31-.31.49-.74.49-1.18V3.33C30 1.5 28.5 0 26.67 0H3.33A3.33 3.33 0 0 0 0 3.33v25.84C0 31 1.5 32.5 3.33 32.5h13.12c.36 0 .69-.24.8-.59.15-.52.44-.99.83-1.36l.66-.67c.12-.12.16-.3.1-.45zM20.1 33.55a.42.42 0 0 0-.7.22L18.35 39a.83.83 0 0 0 .99.98l5.23-1.04a.42.42 0 0 0 .22-.7l-4.69-4.69zM38.71 19.6a4.37 4.37 0 0 0-6.16 0L21.7 30.45a.83.83 0 0 0 0 1.18l5 5c.33.33.86.33 1.18 0l10.83-10.83a4.37 4.37 0 0 0 0-6.18z" fill="currentColor"/></symbol><symbol id="nq-plus-circle" viewBox="0 0 54 54"><path fill-rule="evenodd" clip-rule="evenodd" d="M27 54a27 27 0 1 0 0-54 27 27 0 0 0 0 54zm2.5-40c.6 0 1 .4 1 1v8.5H39c.6 0 1 .4 1 1v5c0 .6-.4 1-1 1h-8.5V39c0 .6-.4 1-1 1h-5a1 1 0 0 1-1-1v-8.5H15a1 1 0 0 1-1-1v-5c0-.6.4-1 1-1h8.5V15c0-.6.4-1 1-1h5z" fill="currentColor"/></symbol><symbol id="nq-qr-code" viewBox="0 0 99 99"><g fill="currentColor"><path fill-rule="evenodd" clip-rule="evenodd" d="M28.9 33H4A4.1 4.1 0 0 1 0 28.9V4A4.1 4.1 0 0 1 4.1 0H29A4.1 4.1 0 0 1 33 4.1V29a4.1 4.1 0 0 1-4.1 4.1zM9.3 8.2a1 1 0 0 0-1 1v14.5c0 .6.4 1 1 1h14.4c.6 0 1-.4 1-1V9.3c0-.6-.4-1-1-1H9.3zM4 66H29a4.1 4.1 0 0 1 4.1 4.1V95a4.1 4.1 0 0 1-4.1 4.1H4A4.1 4.1 0 0 1 0 94.9V70A4.1 4.1 0 0 1 4.1 66zm19.6 24.8c.6 0 1-.5 1-1V75.2c0-.6-.4-1-1-1H9.3a1 1 0 0 0-1 1v14.4c0 .6.4 1 1 1h14.4zM70.1 0H95A4.1 4.1 0 0 1 99 4.1V29a4.1 4.1 0 0 1-4.1 4.1H70a4.1 4.1 0 0 1-4.1-4.1V4A4.1 4.1 0 0 1 70.1 0zm19.6 24.8c.6 0 1-.5 1-1V9.2c0-.6-.4-1-1-1H75.3a1 1 0 0 0-1 1v14.4c0 .6.4 1 1 1h14.4z"/><path d="M41.3 17.5h4a3 3 0 1 0 0-6.2 1 1 0 0 1-1-1V4.1a3 3 0 0 0-6.1 0v10.3a3 3 0 0 0 3 3.1zM53.5 7.2c.6 0 1 .5 1 1V31a3 3 0 0 0 6.2 0V4.1a3 3 0 0 0-3-3h-4.2a3 3 0 0 0 0 6.1zM23.7 43.3a3 3 0 0 0 3.1 3.1h14.4a3 3 0 0 0 3.1-3V26.7a3 3 0 0 0-6.1 0v12.4c0 .6-.5 1-1 1H26.7a3 3 0 0 0-3 3.1z"/><path d="M12.4 40.2a3 3 0 0 0-3.1 3.1v10.3c0 .6-.5 1-1 1H4a3 3 0 0 0 0 6.2h53.6a3 3 0 0 0 3.1-3V45.4a3 3 0 0 0-6.1 0v8.2c0 .6-.5 1-1 1H16.4a1 1 0 0 1-1-1V43.3a3 3 0 0 0-3.1-3zm44.3 30a3 3 0 0 0-3-3.2H41.1a3 3 0 0 0-3 3.1v16.5a3 3 0 0 0 6.1 0V74.3c0-.6.5-1 1-1h8.3a3 3 0 0 0 3.1-3.2zM95 91.7h-35a1 1 0 0 1-1.1-1v-8.3a3 3 0 1 0-6.2 0v12.4a3 3 0 0 0 3 3H95a3 3 0 0 0 0-6.1z"/><path fill-rule="evenodd" clip-rule="evenodd" d="M80.4 83.5H68.1a3 3 0 0 1-3.1-3V68a3 3 0 0 1 3-3.1h12.4a3 3 0 0 1 3.1 3v12.4a3 3 0 0 1-3 3.1zm-8.2-12.3a1 1 0 0 0-1 1v4.1c0 .6.4 1 1 1h4.1c.6 0 1-.4 1-1v-4.1c0-.6-.4-1-1-1h-4.1z"/><path d="M92.8 52.6a3 3 0 0 0-3 3v26.9a3 3 0 0 0 6.1 0V55.7a3 3 0 0 0-3-3.1zM96 41.2a3 3 0 0 0-3-3H70a3 3 0 0 0-3 3v12.4a3 3 0 0 0 6.1 0v-8.2c0-.6.5-1 1-1h18.6a3 3 0 0 0 3.1-3.1z"/></g></symbol><symbol id="nq-questionmark" viewBox="0 0 16 26"><path d="M7.98 25a2.62 2.62 0 1 1 0-5.24 2.62 2.62 0 0 1 0 5.24zM10.78 14.38c-.64.28-1.05.91-1.05 1.6a1.75 1.75 0 0 1-3.5 0 5.24 5.24 0 0 1 3.15-4.8 3.5 3.5 0 1 0-4.89-3.2 1.75 1.75 0 0 1-3.49 0 6.98 6.98 0 1 1 9.78 6.4z" fill="currentColor"/></symbol><symbol id="nq-scan-qr-code" viewBox="0 0 40 40"><g fill="currentColor"><path d="M1.21 7.06c.67 0 1.21-.54 1.21-1.21l-.04-3.12a.3.3 0 0 1 .3-.3H5.7a1.21 1.21 0 1 0 0-2.43H2.37A2.4 2.4 0 0 0 0 2.42v3.43c0 .67.54 1.21 1.21 1.21zM5.69 37.58H2.73a.3.3 0 0 1-.3-.3v-3.13a1.21 1.21 0 1 0-2.43 0v3.43A2.4 2.4 0 0 0 2.37 40H5.7a1.21 1.21 0 0 0 0-2.42zM38.79 32.94c-.67 0-1.21.54-1.21 1.21l.04 3.12a.3.3 0 0 1-.3.3H34.3a1.21 1.21 0 1 0 0 2.43h3.32A2.4 2.4 0 0 0 40 37.58v-3.43c0-.67-.54-1.21-1.21-1.21zM37.63 0H34.3a1.21 1.21 0 1 0 0 2.42h2.96c.17 0 .3.14.3.3v3.13a1.21 1.21 0 0 0 2.43 0V2.42A2.4 2.4 0 0 0 37.63 0z"/><path fill-rule="evenodd" clip-rule="evenodd" d="M13.94 15.15H6.67c-.67 0-1.22-.54-1.22-1.21V6.67c0-.67.55-1.21 1.22-1.21h7.27c.67 0 1.21.54 1.21 1.2v7.28c0 .67-.54 1.21-1.21 1.21zM8.18 7.88a.3.3 0 0 0-.3.3v4.24c0 .17.13.3.3.3h4.24a.3.3 0 0 0 .3-.3V8.18a.3.3 0 0 0-.3-.3H8.18zM6.67 24.85h7.27c.67 0 1.21.54 1.21 1.21v7.27c0 .67-.54 1.22-1.21 1.22H6.67c-.67 0-1.22-.55-1.22-1.22v-7.27c0-.67.55-1.21 1.22-1.21zm5.75 7.27a.3.3 0 0 0 .3-.3v-4.24a.3.3 0 0 0-.3-.3H8.18a.3.3 0 0 0-.3.3v4.24c0 .17.13.3.3.3h4.24zM26.06 5.45h7.27c.67 0 1.21.55 1.21 1.22v7.27c0 .67-.54 1.21-1.2 1.21h-7.28c-.67 0-1.21-.54-1.21-1.21V6.67c0-.67.54-1.22 1.21-1.22zm5.76 7.28a.3.3 0 0 0 .3-.3V8.17a.3.3 0 0 0-.3-.3h-4.24a.3.3 0 0 0-.3.3v4.24c0 .17.13.3.3.3h4.24z"/><path d="M17.58 10.6h1.2a.9.9 0 1 0 0-1.81.3.3 0 0 1-.3-.3V6.66a.9.9 0 1 0-1.81 0V9.7c0 .5.4.9.9.9zM21.21 7.58c.17 0 .3.13.3.3v6.66a.9.9 0 1 0 1.82 0V6.67c0-.5-.4-.91-.9-.91H21.2a.9.9 0 1 0 0 1.82zM12.42 18.18c0 .5.41.91.91.91h4.25c.5 0 .9-.4.9-.9v-4.86a.9.9 0 1 0-1.81 0v3.64a.3.3 0 0 1-.3.3h-3.04c-.5 0-.9.4-.9.91z"/><path d="M9.09 17.27c-.5 0-.9.4-.9.91v3.03a.3.3 0 0 1-.31.3H6.67a.9.9 0 1 0 0 1.82h15.75c.5 0 .91-.4.91-.9v-3.64a.9.9 0 0 0-1.82 0v2.42a.3.3 0 0 1-.3.3h-10.9a.3.3 0 0 1-.31-.3v-3.03c0-.5-.4-.9-.91-.9zM22.12 26.06c0-.5-.4-.9-.9-.9h-3.64c-.5 0-.91.4-.91.9v4.85a.9.9 0 1 0 1.81 0v-3.64c0-.16.14-.3.3-.3h2.43c.5 0 .91-.4.91-.9zM33.33 32.42h-10.3a.3.3 0 0 1-.3-.3V29.7a.9.9 0 1 0-1.82 0v3.63c0 .5.4.91.9.91h11.52a.9.9 0 0 0 0-1.82z"/><path fill-rule="evenodd" clip-rule="evenodd" d="M29.1 30h-3.65a.9.9 0 0 1-.9-.91v-3.64c0-.5.4-.9.9-.9h3.64c.5 0 .91.4.91.9v3.64c0 .5-.4.91-.9.91zm-2.43-3.64a.3.3 0 0 0-.3.3v1.22c0 .17.13.3.3.3h1.2a.3.3 0 0 0 .31-.3v-1.21a.3.3 0 0 0-.3-.3h-1.21z"/><path d="M32.73 20.9c-.5 0-.91.42-.91.92v7.88a.9.9 0 0 0 1.82 0v-7.88c0-.5-.41-.91-.91-.91zM33.64 17.58c0-.5-.41-.91-.91-.91h-6.67c-.5 0-.9.4-.9.9v3.64a.9.9 0 0 0 1.8 0V18.8c0-.17.15-.3.31-.3h5.46c.5 0 .9-.41.9-.91z"/></g></symbol><symbol id="nq-settings" viewBox="0 0 30 28"><path d="M27.634 15.68H9.544a1.428 1.428 0 0 1 0-2.856h18.09a1.428 1.428 0 0 1 0 2.857zM29.064 25.676c0 .789-.639 1.428-1.428 1.428h-8.569a1.428 1.428 0 0 1 0-2.856h8.57a1.428 1.428 0 0 1 1.427 1.43v-.002zM13.482 27.996a2.856 2.856 0 1 1-.282-5.705 2.856 2.856 0 0 1 .283 5.705zM1.922 24.248h4.76a1.428 1.428 0 0 1 0 2.856h-4.76a1.428 1.428 0 1 1 0-2.856zM.004 13.776a2.856 2.856 0 1 1 5.705.285 2.856 2.856 0 0 1-5.705-.285zM6.691 3.778H1.455a1.428 1.428 0 0 1 0-2.856H6.69a1.428 1.428 0 0 1 0 2.856zM13.177.004a2.856 2.856 0 1 1 .283 5.705 2.856 2.856 0 0 1-.283-5.705zM27.63 4.25h-7.616a1.428 1.428 0 0 1 0-2.855h7.617a1.428 1.428 0 0 1 0 2.856z" fill="currentColor"/></symbol><symbol id="nq-shredder" viewBox="0 0 32 42"><g fill="currentColor"><path d="M11.92 28.33a1 1 0 0 0-.96 1.04c.18 4.48-.25 8.92-.93 9.5a1 1 0 1 0 1.2 1.6c1.91-1.44 1.84-8.3 1.72-11.18a1.02 1.02 0 0 0-1.03-.96zM8.99 29.33a1 1 0 1 0-2 0v.87c.02 2.9.03 5.91-1.55 6.97a1 1 0 0 0 1.1 1.66c2.49-1.65 2.47-5.2 2.45-8.64v-.86zM21.97 38.87c-.68-.58-1.12-5.02-.94-9.5a1 1 0 0 0-.96-1.04c-.55 0-1 .42-1.04.96-.12 2.89-.18 9.74 1.73 11.18a.97.97 0 0 0 1.36-.2c.33-.43.26-1.05-.15-1.4zM26.56 37.17c-1.6-1.07-1.58-4.09-1.56-7v-.84a1 1 0 1 0-2 0v.82c-.02 3.45-.04 7.02 2.45 8.68a1 1 0 0 0 1.11-1.66zM16 28.33a1 1 0 0 0-1 1V40a1 1 0 1 0 2 0V29.33a1 1 0 0 0-1-1z"/><path fill-rule="evenodd" clip-rule="evenodd" d="M31.02 19.67a1 1 0 0 1 .98 1v8.66a1 1 0 0 1-1 1h-3.33a1 1 0 0 1-1-1v-2.66a.33.33 0 0 0-.34-.34H5.67a.33.33 0 0 0-.34.34v2.66a1 1 0 0 1-1 1H1a1 1 0 0 1-1-1v-8.66a1 1 0 0 1 1-1h30.02zM29 23.33a1 1 0 1 0 0-2h-2a1 1 0 1 0 0 2h2z"/><path d="M7 2c0-1.1.9-2 2-2h14a2 2 0 0 1 2 2v15a1 1 0 0 1-1 1H8a1 1 0 0 1-1-1V2z"/></g><path fill-rule="evenodd" clip-rule="evenodd" d="M21.5 8.3l-4.8-4.8a1 1 0 0 0-1.4 0l-4.8 4.8a1 1 0 0 0 0 1.4l4.8 4.8a1 1 0 0 0 1.4 0l4.8-4.8a1 1 0 0 0 0-1.4zm-5.97-2.1a.5.5 0 1 1 1 0v3a.5.5 0 0 1-1 0v-3zm.52 5.76a.74.74 0 0 0 .73-.76.76.76 0 0 0-.76-.74h-.01a.74.74 0 0 0-.73.77c.02.4.36.73.77.73z" fill="#fff"/></symbol><symbol id="nq-skull" viewBox="0 0 33 35"><path fill-rule="evenodd" clip-rule="evenodd" d="M32.3 20.2a8.08 8.08 0 0 1-5.76 7.73c-.57.17-.96.7-.96 1.3v1.73a4.04 4.04 0 0 1-3.23 3.96.68.68 0 0 1-.81-.66v-4.64a1.35 1.35 0 1 0-2.7 0v4.7c0 .38-.3.68-.67.68h-4.04a.67.67 0 0 1-.67-.67v-4.71a1.35 1.35 0 1 0-2.7 0v4.64a.68.68 0 0 1-.8.66 4.04 4.04 0 0 1-3.23-3.96v-1.73c0-.6-.39-1.13-.96-1.3A8.08 8.08 0 0 1 0 20.2v-4.04a16.15 16.15 0 0 1 32.3 0v4.04zM8.09 21.53a4.04 4.04 0 1 0 0-8.08 4.04 4.04 0 0 0 0 8.08zm20.19-4.04a4.04 4.04 0 1 1-8.08 0 4.04 4.04 0 0 1 8.08 0z" fill="currentColor"/></symbol><symbol id="nq-transfer" viewBox="0 0 20 20"><path d="M10.01 14.82a1 1 0 0 0 1.37-.37l3.37-5.83a.17.17 0 0 1 .22-.06l.73.41a.67.67 0 0 0 1-.58l-.07-3.89a.67.67 0 0 0-.99-.57l-3.4 1.89a.67.67 0 0 0 0 1.15l.71.42c.08.05.11.15.06.23l-3.37 5.83a1 1 0 0 0 .37 1.37zM8.23 5.19l-3.55 5.76a.17.17 0 0 1-.23.06l-.55-.32a.67.67 0 0 0-1 .59l.07 3.89a.67.67 0 0 0 .99.57l3.4-1.89a.67.67 0 0 0 0-1.16l-.89-.51a.17.17 0 0 1-.07-.1.16.16 0 0 1 .02-.13l3.52-5.72a1 1 0 1 0-1.7-1.05z" fill="currentColor"/></symbol><symbol id="nq-view-off" viewBox="0 0 24 24"><g fill="currentColor"><path fill-rule="evenodd" clip-rule="evenodd" d="M18.9 6.95c1.59 1 3.03 2.21 4.3 3.6.74.82.74 2.07 0 2.9-2.56 2.81-6.79 5.8-11.04 5.8h-.3a11.26 11.26 0 0 1-4.31-.94L3.4 22.45a1 1 0 0 1-1.63-1.08l.01-.01.01-.01 19.5-19.5a.74.74 0 0 0 .18-.3l.02-.01a1 1 0 1 1 1.41 1.41l-4 4zm-5.59 9.35a4.58 4.58 0 0 0 3-3.03 4.3 4.3 0 0 0-.2-3.06.25.25 0 0 0-.4-.07l-5.57 5.56a.25.25 0 0 0 .07.4 4.3 4.3 0 0 0 3.1.2z"/><path d="M7.62 13.4a.24.24 0 0 0 .06-.24A4.32 4.32 0 0 1 7.5 12a4.5 4.5 0 0 1 5.66-4.33c.09.03.18 0 .24-.06l1.94-1.94a.25.25 0 0 0-.1-.42c-1.05-.34-2.14-.5-3.24-.5C7.7 4.69 3.4 7.7.81 10.55a2.15 2.15 0 0 0 0 2.9 21.21 21.21 0 0 0 3.43 3.03c.1.07.24.06.33-.03l3.05-3.05z"/></g></symbol><symbol id="nq-view" viewBox="0 0 24 24"><path fill-rule="evenodd" clip-rule="evenodd" d="M12 4.6c4.4-.06 8.79 3.01 11.43 5.92.75.84.75 2.11 0 2.95-2.61 2.88-6.94 5.93-11.28 5.93h-.31c-4.33 0-8.66-3.05-11.27-5.93a2.21 2.21 0 0 1 0-2.95C3.2 7.62 7.6 4.54 12 4.6zm0 2.8a4.6 4.6 0 1 0 0 9.2 4.6 4.6 0 0 0 0-9.2z" fill="currentColor"/><path d="M12 14a2 2 0 1 0 0-4 2 2 0 0 0 0 4z" fill="currentColor"/></symbol></svg>