<svg width="25" height="24" viewBox="0 0 25 24" xmlns="http://www.w3.org/2000/svg"><path d="M21.66 9.31l1.26.45a2.37 2.37 0 0 1 0 4.48l-1.27.45a1.37 1.37 0 0 0-.77 1.88l.57 1.22a2.38 2.38 0 0 1-3.16 3.16l-1.22-.57a1.37 1.37 0 0 0-1.88.78l-.45 1.26a2.38 2.38 0 0 1-4.48 0l-.45-1.26a1.37 1.37 0 0 0-1.88-.78l-1.22.57a2.38 2.38 0 0 1-3.16-3.16l.57-1.22a1.37 1.37 0 0 0-.78-1.88l-1.26-.45a2.38 2.38 0 0 1 0-4.48l1.26-.45a1.38 1.38 0 0 0 .78-1.88l-.57-1.21A2.38 2.38 0 0 1 6.7 3.04l1.22.58a1.38 1.38 0 0 0 1.88-.78l.45-1.27a2.38 2.38 0 0 1 4.48 0l.45 1.27a1.37 1.37 0 0 0 1.88.78l1.22-.58a2.38 2.38 0 0 1 3.16 3.17l-.57 1.2a1.37 1.37 0 0 0 .78 1.9zm-13.6 4.53a4.93 4.93 0 0 0 6.28 2.6 4.81 4.81 0 0 0 2.6-6.28 4.87 4.87 0 0 0-6.28-2.6 4.81 4.81 0 0 0-2.6 6.28z" fill="currentColor"/></svg>
