<svg width="150" height="149" viewBox="0 0 150 149" xmlns="http://www.w3.org/2000/svg"><path d="M81 103a26 26 0 100-52 26 26 0 000 52zM3 97h15c1 0 2 1 2 3v35c0 2-1 3-2 3H3c-2 0-3-1-3-3v-35c0-2 1-3 3-3zm60 17h-1c-5-7-13-11-21-11H28l-2 1v30l1 1c26 9 37 14 47 14 11 0 21-7 54-24 3-1 4-5 2-8-1-2-3-3-6-3l-5 1-19 6-1 1c-1 6-6 10-12 10H64c-2 0-3-1-3-3s1-3 3-3h23c3 0 6-3 6-6s-3-6-6-6H63zm61-61.8h-.3a24 24 0 01-6.4-1c-1.6-.3-2.5-2-2-3.5.3-1.5 2-2.4 3.5-2 1.6.5 3.3.6 5 .7h.2a22 22 0 005-.6c1.6-.5 3.2.5 3.6 2a3 3 0 01-2.1 3.6 31 31 0 01-6.5.8zm15.8-6.3a3 3 0 01-2-5 21 21 0 003.2-4 3 3 0 014-.9 3 3 0 01.9 4 23 23 0 01-4.2 5c-.5.6-1.2.9-2 .9zm-31.9-.2c-.7 0-1.4-.3-2-.8a28 28 0 01-4.1-5 3 3 0 011-4 3 3 0 014 .8c.8 1.5 2 2.8 3.1 4a3 3 0 01.2 4.1 3 3 0 01-2.2.9zM147 30.5h-.2a2.9 2.9 0 01-2.7-3.1V26c0-1.3 0-2.6-.3-3.8a2.9 2.9 0 015.7-1c.3 1.5.5 3.2.5 4.8v1.7a3 3 0 01-3 2.7zm-46.2-.3a3 3 0 01-2.9-2.7V26c0-1.7.1-3.4.4-5a3 3 0 013.4-2.3 3 3 0 012.4 3.4c-.3 1.3-.4 2.6-.4 4v1a3 3 0 01-2.8 3.1zm41-16a3 3 0 01-2.3-1 20.7 20.7 0 00-3.6-3.5 3 3 0 01-.7-4 3 3 0 014.1-.7c1.7 1.3 3.3 2.8 4.7 4.5 1 1.2.9 3-.4 4-.5.6-1.1.7-1.8.7zm-35.6-.1c-.7 0-1.4-.3-1.9-.7a2.9 2.9 0 01-.3-4.1c1.3-1.7 3-3.1 4.7-4.4a3 3 0 014 .6 3 3 0 01-.5 4 21 21 0 00-3.8 3.5 3 3 0 01-2.2 1zM126.9 6h-.4c-1.7-.2-3.4-.2-5 0a3 3 0 11-.7-5.8c2.1-.3 4.3-.3 6.5 0a3 3 0 012.5 3.2 2.8 2.8 0 01-2.9 2.6z" fill="currentColor"/></svg>
